<?xml version="1.0" encoding="UTF-8" standalone="no"?>
<!-- Generator: Adobe Illustrator 22.1.0, SVG Export Plug-In . SVG Version: 6.00 Build 0)  -->

<svg
   xmlns:dc="http://purl.org/dc/elements/1.1/"
   xmlns:cc="http://creativecommons.org/ns#"
   xmlns:rdf="http://www.w3.org/1999/02/22-rdf-syntax-ns#"
   xmlns:svg="http://www.w3.org/2000/svg"
   xmlns="http://www.w3.org/2000/svg"
   xmlns:sodipodi="http://sodipodi.sourceforge.net/DTD/sodipodi-0.dtd"
   xmlns:inkscape="http://www.inkscape.org/namespaces/inkscape"
   version="1.1"
   id="svg94"
   inkscape:version="0.92.3 (2405546, 2018-03-11)"
   sodipodi:docname="uklad_icot.svg"
   x="0px"
   y="0px"
   viewBox="0 0 64 64"
   style="enable-background:new"
   xml:space="preserve"
   width="64"
   height="64"><metadata
   id="metadata39"><rdf:RDF><cc:Work
       rdf:about=""><dc:format>image/svg+xml</dc:format><dc:type
         rdf:resource="http://purl.org/dc/dcmitype/StillImage" /><dc:title></dc:title></cc:Work></rdf:RDF></metadata><defs
   id="defs37" />
<style
   type="text/css"
   id="style2">
	.st0{fill:#404040;}
	.st1{fill:#484848;}
	.st2{fill:#757575;}
	.st3{fill:#FFFFFF;}
	.st4{fill:none;}
	.st5{fill:#FFFFB6;}
	.st6{fill:#FFFFDB;}
</style>
<sodipodi:namedview
   bordercolor="#666666"
   borderopacity="1"
   gridtolerance="10"
   guidetolerance="10"
   id="namedview96"
   inkscape:current-layer="svg94"
   inkscape:cx="119.21058"
   inkscape:cy="131.02137"
   inkscape:pageopacity="0"
   inkscape:pageshadow="2"
   inkscape:window-height="1017"
   inkscape:window-maximized="1"
   inkscape:window-width="1920"
   inkscape:window-x="-8"
   inkscape:window-y="1016"
   inkscape:zoom="2"
   objecttolerance="10"
   pagecolor="#ffffff"
   showgrid="false"
   inkscape:pagecheckerboard="true">
	</sodipodi:namedview>




<g
   id="layer107"
   inkscape:label="layer107"
   transform="translate(-5,-122)">
	
		<path
   style="display:inline;fill:#757575;fill-opacity:1"
   d="m 47.3,180.5 c 5,-0.8 10.9,-6.2 13.5,-12.3 2.8,-6.5 3.9,-17.1 2.1,-21.4 -1.6,-4 -6.6,-10.1 -10.8,-13.2 -1.7,-1.3 -2.3,-1.5 -3,-2.5 -1.2,-0.8 -1.3,-1 -2.9,-1.8 -0.8,-0.7 -3.7,-2 -6.7,-2.8 -4.7,-1.4 -6,-1.4 -10.9,-0.2 -7.6,2 -14.2,7.1 -17.3,13.2 -3.7,7.2 -2.9,14.6 2.6,24.7 4.5,8.2 7.7,11 17.2,14.8 3,1.2 6.1,2.5 6.9,2.9 0.8,0.5 2.4,0.5 3.5,0 1.1,-0.4 3.7,-1.1 5.8,-1.4 z"
   id="path52"
   inkscape:connector-curvature="0"
   inkscape:label="szare_zewnatrz"
   inkscape:export-xdpi="300"
   inkscape:export-ydpi="300" /><path
   style="display:inline;fill:#4b4b4b;fill-opacity:1"
   d="M 40.7,177.3 C 48,175 53,169.1 56.4,158.7 c 3.2,-9.3 3.2,-9.7 0.2,-14.2 -1.4,-2 -2.7,-4.9 -3.1,-6.5 -0.4,-1.7 -2.4,-4.3 -5.2,-6.6 -3.8,-3.2 -5.7,-3.9 -11.1,-4.6 -7,-0.8 -9.3,-0.1 -18.6,6.3 -9.4,6.3 -11.1,16.2 -5.2,29 3,6.7 5.5,9.7 10.9,13.9 1.5,1.1 5.8,2.3 10.1,2.9 0.5,0 3.4,-0.7 6.3,-1.6 z"
   id="path43"
   inkscape:connector-curvature="0"
   inkscape:label="ciemne_szare"
   inkscape:export-xdpi="300"
   inkscape:export-ydpi="300" /><path
   style="display:inline;fill:#404040;fill-opacity:1"
   d="m 37.259581,170.57764 c -0.4,-0.7 -0.1,-1 0.7,-0.7 0.8,0.3 3.6,-1.2 6.3,-3.3 2.6,-2.1 5.3,-3.6 5.9,-3.2 0.5,0.3 0.7,0.2 0.4,-0.4 -0.4,-0.6 0,-1.9 0.8,-2.9 0.8,-1 1.5,-2.7 1.5,-3.6 0,-1 0.4,-1.8 0.8,-1.8 0.4,0 0.7,-2.4 0.7,-5.2 0,-4.7 -0.5,-5.9 -4.5,-11 -4,-5.1 -5.1,-5.9 -9.6,-6.9 -3.2,-0.7 -6.6,-0.9 -9,-0.3 -2.2,0.4 -4.8,0.7 -5.9,0.6 -1.6,-0.2 -1.7,0 -0.5,0.8 1.3,0.9 1.3,1 0,1 -1.5,0 -9.9,7 -8.4,7 0.4,0 0.3,0.5 -0.3,1.1 -0.6,0.6 -0.9,1.8 -0.6,2.5 0.3,0.8 0.1,1.4 -0.3,1.4 -0.5,0 -1,3.6 -1.1,8 -0.1,4.4 0.2,8 0.7,8 0.5,0 1.2,0.9 1.5,2 0.4,1.1 1,1.8 1.5,1.5 0.5,-0.3 1.4,0.4 2,1.5 0.6,1.1 1.5,1.8 2.1,1.4 0.5,-0.3 1.7,0 2.6,0.8 0.9,0.7 4.1,1.6 7.2,1.9 3.1,0.3 5.7,0.7 5.9,0.8 0.2,0 0,-0.4 -0.4,-1 z"
   id="path34"
   inkscape:connector-curvature="0"
   inkscape:label="dookola_galaktyki"
   inkscape:export-xdpi="300"
   inkscape:export-ydpi="300" /><path
   id="path40"
   class="st1"
   d="m 36.7,162.9 c -0.9,-0.5 -2.1,-0.8 -2.5,-0.5 -1.2,0.7 -4.5,-2.2 -3.7,-3.4 0.3,-0.6 0.1,-0.9 -0.5,-0.8 -0.7,0.2 -1.7,-0.6 -2.3,-1.7 -0.7,-1.1 -2.2,-3.5 -3.5,-5.3 -2.1,-2.9 -2.2,-3.5 -1,-6.8 0.9,-2.5 2.4,-4.2 5,-5.5 4.7,-2.4 4.9,-1.8 0.6,1 -1.8,1.1 -2.6,2.1 -1.8,2.1 0.9,0 2.4,-0.6 3.5,-1.4 2.5,-1.7 5.2,-1.3 7.2,1.1 0.8,1 1.2,1.2 0.8,0.6 -0.4,-0.9 -0.1,-1.1 1,-0.7 0.9,0.4 1.4,0.9 1.1,1.1 -0.2,0.3 0.6,2 1.9,3.9 1.6,2.4 2.2,4.3 1.8,6.5 -0.3,2.4 -0.1,2.9 0.9,2.3 0.7,-0.4 0.4,0.3 -0.7,1.6 -1.1,1.3 -1.4,2 -0.7,1.6 2.3,-1.4 1.2,1.2 -1.4,3.3 -3,2.4 -3.2,2.4 -5.7,1 z m 4.3,-3 c 0,-1.8 -2,-1.8 -2.9,0 -0.9,1.6 -0.8,1.8 0.9,1.4 1.1,-0.3 2,-0.9 2,-1.4 z M 41,146 c 0,-0.5 -0.7,-1 -1.5,-1 -0.8,0 -1.5,0.5 -1.5,1 0,0.6 0.7,1 1.5,1 0.8,0 1.5,-0.4 1.5,-1 z"
   inkscape:connector-curvature="0"
   style="fill:#484848"
   inkscape:label="galaktyka"
   inkscape:export-xdpi="300"
   inkscape:export-ydpi="300" />
	
	
<path
   id="path49"
   class="st2"
   d="m 34,147 c 0,-0.7 0.3,-1 0.7,-0.7 0.3,0.4 0.3,1 0,1.4 -0.4,0.3 -0.7,0 -0.7,-0.7 z"
   inkscape:connector-curvature="0"
   style="display:inline;fill:#757575"
   inkscape:label="kropeczka_szare_jasne"
   inkscape:export-xdpi="300"
   inkscape:export-ydpi="300" /></g>




</svg>