<?xml version="1.0" encoding="UTF-8" standalone="no"?>
<!-- Generator: Adobe Illustrator 22.1.0, SVG Export Plug-In . SVG Version: 6.00 Build 0)  -->

<svg
   xmlns:dc="http://purl.org/dc/elements/1.1/"
   xmlns:cc="http://creativecommons.org/ns#"
   xmlns:rdf="http://www.w3.org/1999/02/22-rdf-syntax-ns#"
   xmlns:svg="http://www.w3.org/2000/svg"
   xmlns="http://www.w3.org/2000/svg"
   xmlns:sodipodi="http://sodipodi.sourceforge.net/DTD/sodipodi-0.dtd"
   xmlns:inkscape="http://www.inkscape.org/namespaces/inkscape"
   version="1.1"
   id="svg94"
   inkscape:version="0.92.3 (2405546, 2018-03-11)"
   sodipodi:docname="ukad_transparent.svg"
   x="0px"
   y="0px"
   viewBox="0 0 729 198"
   style="enable-background:new 0 0 729 198;"
   xml:space="preserve"
   enable-background="new"><metadata
   id="metadata39"><rdf:RDF><cc:Work
       rdf:about=""><dc:format>image/svg+xml</dc:format><dc:type
         rdf:resource="http://purl.org/dc/dcmitype/StillImage" /><dc:title></dc:title></cc:Work></rdf:RDF></metadata><defs
   id="defs37" />
<style
   type="text/css"
   id="style2">
	.st0{fill:#404040;}
	.st1{fill:#484848;}
	.st2{fill:#757575;}
	.st3{fill:#FFFFFF;}
	.st4{fill:none;}
	.st5{fill:#FFFFB6;}
	.st6{fill:#FFFFDB;}
</style>
<sodipodi:namedview
   bordercolor="#666666"
   borderopacity="1"
   gridtolerance="10"
   guidetolerance="10"
   id="namedview96"
   inkscape:current-layer="layer107"
   inkscape:cx="253.28178"
   inkscape:cy="131.02137"
   inkscape:pageopacity="0"
   inkscape:pageshadow="2"
   inkscape:window-height="1017"
   inkscape:window-maximized="1"
   inkscape:window-width="1920"
   inkscape:window-x="-8"
   inkscape:window-y="1016"
   inkscape:zoom="2"
   objecttolerance="10"
   pagecolor="#ffffff"
   showgrid="false"
   inkscape:pagecheckerboard="true">
	</sodipodi:namedview>




<g
   id="layer107"
   inkscape:label="layer107">
	
		<path
   id="path70"
   style="opacity:1;fill:#000000;fill-opacity:0.96464646"
   d="m 640.1,159.5 c -9.2,-2.9 -14.6,-11.7 -16.1,-26.3 -2.2,-21.4 4.6,-38.2 17.9,-44 4.6,-2 19.9,-2.2 26.4,-0.3 l 4.7,1.4 v 31.3 31.3 l -2.6,2 c -3.8,3 -14.7,6.1 -20.8,6 -2.8,0 -7.1,-0.6 -9.5,-1.4 z m 8.4,30 c 5.9,-2 13.1,-6.1 19.8,-11.1 l 4.7,-3.6 v 6.6 6.6 h 20 20 V 101 14 h -20 -20 v 26 c 0,14.3 -0.2,26 -0.4,26 -0.3,0 -3.9,-1.4 -8,-3 -10.2,-4.1 -17.4,-5.3 -27.6,-4.7 -36.8,2.3 -59.6,36.7 -54,81.3 2.1,17.5 7.8,30.1 17.8,39.6 10,9.6 19.3,13 33.7,12.4 5,-0.2 11.3,-1.1 14,-2.1 z"
   inkscape:connector-curvature="0"
   inkscape:label="path70" /><path
   id="path68"
   style="display:inline;fill:#000000;fill-opacity:1"
   d="m 499.9,164.1 c -7.2,-2.4 -10.3,-7 -10.2,-15.2 0.1,-8.2 4.8,-13.1 15.1,-15.9 3.5,-0.9 25.4,-4 28.4,-4 0.4,0 0.8,6 0.8,13.3 0,15.3 0.2,14.9 -9.5,19.3 -4.6,2.2 -7.8,2.8 -14,3.1 -4.4,0.1 -9.2,-0.1 -10.6,-0.6 z m 5.4,26 c 8.9,-2.3 13.9,-4.7 22.5,-10.8 l 6.2,-4.4 v 6.5 6.6 h 20.1 20 l -0.3,-48.7 C 573.5,91 573.5,90.4 571.2,84.8 566.1,72.1 554.8,64.1 537,60.3 520.4,56.8 484.5,58.2 464.3,63.2 l -4.3,1 v 15 15 l 2.8,-0.5 c 1.5,-0.3 7.9,-2.2 14.2,-4.2 13.4,-4.3 25.3,-5.4 37,-3.6 12.2,1.9 18.6,6.7 19.7,14.8 l 0.5,4.1 -7.8,0.7 c -40.8,3.5 -55.8,7.8 -67.6,19.5 -4.8,4.8 -6,6.8 -7.8,12.9 -3.1,10.1 -2.5,23.1 1.3,31.2 4.9,10.3 16.1,19.1 27.4,21.8 6.6,1.6 17.6,1.2 25.6,-0.8 z"
   inkscape:connector-curvature="0" /><path
   style="display:inline;fill:#000000;fill-opacity:0.97989951"
   d="m 154.1,191 c 6.4,-1.2 19.6,-7.5 26.1,-12.4 2.6,-2 4.9,-3.6 5.2,-3.6 0.3,0 0.6,2.9 0.6,6.5 v 6.5 h 20 20 V 125 62 h -20 -20 v 44.8 44.8 l -5.7,2.7 c -8.1,3.8 -14.4,5 -21.7,4.5 -12.1,-1 -16.2,-5.9 -17.7,-21.2 -0.4,-5 -0.9,-24.1 -0.9,-42.3 V 62 h -20.1 -20 l 0.3,48.8 c 0.3,48.6 0.4,48.7 2.7,54.7 5.8,14.6 13.5,21.5 27.6,25.1 6.2,1.5 16.5,1.7 23.6,0.4 z"
   id="path4633"
   inkscape:connector-curvature="0"
   inkscape:label="u" /><path
   style="display:inline;fill:#000000;fill-opacity:1"
   d="m 283,167.4 v -20.5 l 5.7,-6.9 5.7,-6.9 7.6,11.7 c 4.1,6.4 12,18.8 17.5,27.4 l 10,15.7 h 23.3 c 12.7,0.1 23.2,-0.1 23.2,-0.4 0,-0.2 -7.6,-11.6 -16.8,-25.2 -9.3,-13.7 -20,-29.6 -24,-35.4 l -7.1,-10.6 21.2,-25.5 C 361,76.8 371.1,64.6 371.9,63.7 373.1,62.1 371.6,62 350.2,62 h -23 l -4.3,5.4 c -2.4,3 -8.7,10.9 -13.9,17.6 -5.2,6.7 -13.1,16.8 -17.5,22.4 l -8,10.1 L 283.2,65.8 283,14 h -20 -20 v 87 87 h 20 20 z"
   id="path4627"
   inkscape:connector-curvature="0"
   inkscape:label="k" /><path
   style="display:inline;fill:#000000;fill-opacity:1"
   d="m 428,145.6 v -42.3 l 8.9,-6.9 9,-6.9 V 76.8 C 446,69.7 445.8,64 445.5,64 c -0.4,0 -4.3,3 -8.8,6.6 L 428.5,77.2 428.2,45.1 428,13 h -20 -20 v 43.8 43.8 l -8.5,6.4 -8.4,6.5 -0.1,12.8 c 0,7 0.3,12.7 0.6,12.7 0.3,0 4.2,-3 8.5,-6.6 l 7.9,-6.6 v 31.1 31.1 h 20 20 z"
   id="path4625"
   inkscape:connector-curvature="0"
   inkscape:label="l" /><path
   style="display:inline;fill:#757575;fill-opacity:1"
   d="m 47.3,180.5 c 5,-0.8 10.9,-6.2 13.5,-12.3 2.8,-6.5 3.9,-17.1 2.1,-21.4 -1.6,-4 -6.6,-10.1 -10.8,-13.2 -1.7,-1.3 -2.3,-1.5 -3,-2.5 -1.2,-0.8 -1.3,-1 -2.9,-1.8 -0.8,-0.7 -3.7,-2 -6.7,-2.8 -4.7,-1.4 -6,-1.4 -10.9,-0.2 -7.6,2 -14.2,7.1 -17.3,13.2 -3.7,7.2 -2.9,14.6 2.6,24.7 4.5,8.2 7.7,11 17.2,14.8 3,1.2 6.1,2.5 6.9,2.9 0.8,0.5 2.4,0.5 3.5,0 1.1,-0.4 3.7,-1.1 5.8,-1.4 z"
   id="path52"
   inkscape:connector-curvature="0"
   inkscape:label="szare_zewnatrz" /><path
   style="display:inline;fill:#4b4b4b;fill-opacity:1"
   d="M 40.7,177.3 C 48,175 53,169.1 56.4,158.7 c 3.2,-9.3 3.2,-9.7 0.2,-14.2 -1.4,-2 -2.7,-4.9 -3.1,-6.5 -0.4,-1.7 -2.4,-4.3 -5.2,-6.6 -3.8,-3.2 -5.7,-3.9 -11.1,-4.6 -7,-0.8 -9.3,-0.1 -18.6,6.3 -9.4,6.3 -11.1,16.2 -5.2,29 3,6.7 5.5,9.7 10.9,13.9 1.5,1.1 5.8,2.3 10.1,2.9 0.5,0 3.4,-0.7 6.3,-1.6 z"
   id="path43"
   inkscape:connector-curvature="0"
   inkscape:label="ciemne_szare" /><path
   style="display:inline;fill:#404040;fill-opacity:1"
   d="m 37.259581,170.57764 c -0.4,-0.7 -0.1,-1 0.7,-0.7 0.8,0.3 3.6,-1.2 6.3,-3.3 2.6,-2.1 5.3,-3.6 5.9,-3.2 0.5,0.3 0.7,0.2 0.4,-0.4 -0.4,-0.6 0,-1.9 0.8,-2.9 0.8,-1 1.5,-2.7 1.5,-3.6 0,-1 0.4,-1.8 0.8,-1.8 0.4,0 0.7,-2.4 0.7,-5.2 0,-4.7 -0.5,-5.9 -4.5,-11 -4,-5.1 -5.1,-5.9 -9.6,-6.9 -3.2,-0.7 -6.6,-0.9 -9,-0.3 -2.2,0.4 -4.8,0.7 -5.9,0.6 -1.6,-0.2 -1.7,0 -0.5,0.8 1.3,0.9 1.3,1 0,1 -1.5,0 -9.9,7 -8.4,7 0.4,0 0.3,0.5 -0.3,1.1 -0.6,0.6 -0.9,1.8 -0.6,2.5 0.3,0.8 0.1,1.4 -0.3,1.4 -0.5,0 -1,3.6 -1.1,8 -0.1,4.4 0.2,8 0.7,8 0.5,0 1.2,0.9 1.5,2 0.4,1.1 1,1.8 1.5,1.5 0.5,-0.3 1.4,0.4 2,1.5 0.6,1.1 1.5,1.8 2.1,1.4 0.5,-0.3 1.7,0 2.6,0.8 0.9,0.7 4.1,1.6 7.2,1.9 3.1,0.3 5.7,0.7 5.9,0.8 0.2,0 0,-0.4 -0.4,-1 z"
   id="path34"
   inkscape:connector-curvature="0"
   inkscape:label="dookola_galaktyki" /><path
   id="path40"
   class="st1"
   d="m 36.7,162.9 c -0.9,-0.5 -2.1,-0.8 -2.5,-0.5 -1.2,0.7 -4.5,-2.2 -3.7,-3.4 0.3,-0.6 0.1,-0.9 -0.5,-0.8 -0.7,0.2 -1.7,-0.6 -2.3,-1.7 -0.7,-1.1 -2.2,-3.5 -3.5,-5.3 -2.1,-2.9 -2.2,-3.5 -1,-6.8 0.9,-2.5 2.4,-4.2 5,-5.5 4.7,-2.4 4.9,-1.8 0.6,1 -1.8,1.1 -2.6,2.1 -1.8,2.1 0.9,0 2.4,-0.6 3.5,-1.4 2.5,-1.7 5.2,-1.3 7.2,1.1 0.8,1 1.2,1.2 0.8,0.6 -0.4,-0.9 -0.1,-1.1 1,-0.7 0.9,0.4 1.4,0.9 1.1,1.1 -0.2,0.3 0.6,2 1.9,3.9 1.6,2.4 2.2,4.3 1.8,6.5 -0.3,2.4 -0.1,2.9 0.9,2.3 0.7,-0.4 0.4,0.3 -0.7,1.6 -1.1,1.3 -1.4,2 -0.7,1.6 2.3,-1.4 1.2,1.2 -1.4,3.3 -3,2.4 -3.2,2.4 -5.7,1 z m 4.3,-3 c 0,-1.8 -2,-1.8 -2.9,0 -0.9,1.6 -0.8,1.8 0.9,1.4 1.1,-0.3 2,-0.9 2,-1.4 z M 41,146 c 0,-0.5 -0.7,-1 -1.5,-1 -0.8,0 -1.5,0.5 -1.5,1 0,0.6 0.7,1 1.5,1 0.8,0 1.5,-0.4 1.5,-1 z"
   inkscape:connector-curvature="0"
   style="fill:#484848"
   inkscape:label="galaktyka" />
	
	
<path
   id="path49"
   class="st2"
   d="m 34,147 c 0,-0.7 0.3,-1 0.7,-0.7 0.3,0.4 0.3,1 0,1.4 -0.4,0.3 -0.7,0 -0.7,-0.7 z"
   inkscape:connector-curvature="0"
   style="display:inline;fill:#757575"
   inkscape:label="kropeczka_szare_jasne" /></g>




</svg>